# xmcd
#
# Track frame offsets: 
#        151
#        17736
#        37459
#        58768
#        78576
#        94807
#        115416
#        137872
#        158950
#        177979
#
# Disc length: 2631 seconds
#
# Revision: 5
# Processed by: cddbd v1.5.2PL0 Copyright (c) Steve Scherf et al.
# Submitted via: ExactAudioCopy v0.95a5
#
DISCID=8f0a450a
DTITLE=王菲 - 胡思乱想
DYEAR=1994
DGENRE=Pop
TTITLE0=胡思乱想
TTITLE1=誓言
TTITLE2=天与地
TTITLE3=梦中人
TTITLE4=知己知彼
TTITLE5=纯情
TTITLE6=游戏的终点
TTITLE7=梦游
TTITLE8=蓝色时分
TTITLE9=回忆是红色的天空
EXTD=YEAR: 1994 ID3G: 13
EXTT0=
EXTT1=
EXTT2=
EXTT3=
EXTT4=
EXTT5=
EXTT6=
EXTT7=
EXTT8=
EXTT9=
PLAYORDER=
